<?xml version="1.0" encoding="UTF-8"?>
<svg width="14px" height="10px" viewBox="0 0 14 10" version="1.1" xmlns="http://www.w3.org/2000/svg" xmlns:xlink="http://www.w3.org/1999/xlink">
    <!-- Generator: Sketch 62 (91390) - https://sketch.com -->
    <title>Icons/Solid/sign-out-alt</title>
    <desc>Created with Sketch.</desc>
    <defs>
        <path d="M14.3805339,8.44243171 L10.0055339,12.8174317 C9.61490885,13.2080567 8.93782552,12.9346192 8.93782552,12.3747234 L8.93782552,9.87472338 L5.39615885,9.87472338 C5.04980469,9.87472338 4.77115885,9.59607754 4.77115885,9.24972338 L4.77115885,6.74972338 C4.77115885,6.40336921 5.04980469,6.12472338 5.39615885,6.12472338 L8.93782552,6.12472338 L8.93782552,3.62472338 C8.93782552,3.06743171 9.61230469,2.79139004 10.0055339,3.18201504 L14.3805339,7.55701504 C14.6227214,7.80180671 14.6227214,8.19764004 14.3805339,8.44243171 Z M6.43782552,12.6872234 L6.43782552,11.6455567 C6.43782552,11.4736817 6.29720052,11.3330567 6.12532552,11.3330567 L3.93782552,11.3330567 C3.47688802,11.3330567 3.10449219,10.9606609 3.10449219,10.4997234 L3.10449219,5.49972338 C3.10449219,5.03878588 3.47688802,4.66639004 3.93782552,4.66639004 L6.12532552,4.66639004 C6.29720052,4.66639004 6.43782552,4.52576504 6.43782552,4.35389004 L6.43782552,3.31222338 C6.43782552,3.14034838 6.29720052,2.99972338 6.12532552,2.99972338 L3.93782552,2.99972338 C2.55761719,2.99972338 1.43782552,4.11951504 1.43782552,5.49972338 L1.43782552,10.4997234 C1.43782552,11.8799317 2.55761719,12.9997234 3.93782552,12.9997234 L6.12532552,12.9997234 C6.29720052,12.9997234 6.43782552,12.8590984 6.43782552,12.6872234 Z" id="path-1"></path>
    </defs>
    <g id="Symbols" stroke="none" stroke-width="1" fill="none" fill-rule="evenodd">
        <g id="navbar_login" transform="translate(-1379.000000, -40.000000)">
            <g id="Group-4" transform="translate(1323.000000, 35.000000)">
                <g id="Icons/Solid/sign-out-alt" transform="translate(55.000000, 2.000000)">
                    <mask id="mask-2" fill="white">
                        <use xlink:href="#path-1"></use>
                    </mask>
                    <use id="sign-out-alt" fill="#000000" fill-rule="nonzero" xlink:href="#path-1"></use>
                    <g id="Colors/Third" mask="url(#mask-2)" fill="#000000" fill-rule="evenodd">
                        <rect id="Rectangle" x="0" y="0" width="16" height="16"></rect>
                    </g>
                </g>
            </g>
        </g>
    </g>
</svg>